<svg xmlns="http://www.w3.org/2000/svg" width="40" height="40">
    <defs>
        <linearGradient id="a" x1="49.946%" x2="49.946%" y1="-.069%" y2="100.122%">
            <stop offset="0%" stop-color="#00583E"/>
            <stop offset="100%" stop-color="#00835C"/>
        </linearGradient>
    </defs>
    <g fill="none" fill-rule="evenodd">
        <path fill="url(#a)" fill-rule="nonzero" d="M28.917 13.19c1.548-.05 2.897 1.1 3.046 2.648.6 7.441-6.242 15.782-15.831 16.031A15.833 15.833 0 0 1 0 15.838c0-1.548 1.299-2.797 2.797-2.797a2.792 2.792 0 0 1 2.797 2.797c0 6.442 5.194 10.588 10.338 10.488 6.392-.2 10.488-5.694 10.288-10.189-.05-1.548 1.149-2.896 2.697-2.946Z" transform="translate(4 4)"/>
        <path fill="#00A672" fill-rule="nonzero" d="M25.925 20.038c0-1.599 1.298-2.847 2.897-2.847h4.195c1.598 0 2.897 1.298 2.897 2.847 0 1.598-1.349 2.846-2.897 2.846h-4.195c-1.599 0-2.897-1.248-2.897-2.846Zm-8.79 0a2.845 2.845 0 0 1 2.847-2.847 2.845 2.845 0 0 1 2.846 2.847 2.845 2.845 0 0 1-2.846 2.846 2.845 2.845 0 0 1-2.847-2.846Z"/>
        <path fill="#00A672" d="M22.779 6.653c.05 1.548-1.15 2.847-2.647 2.896-6.643.3-10.688 5.494-10.488 10.439.05 1.548-1.1 2.846-2.647 2.896-1.549.05-2.897-1.198-2.947-2.747-.35-8.04 6.343-15.981 15.832-16.131a2.722 2.722 0 0 1 2.897 2.647Z"/>
    </g>
</svg>
