<svg xmlns="http://www.w3.org/2000/svg" width="16" height="16">
    <defs>
        <linearGradient id="a" x1="49.946%" x2="49.946%" y1="-.069%" y2="100.122%">
            <stop offset="0%" stop-color="#00583E"/>
            <stop offset="100%" stop-color="#00835C"/>
        </linearGradient>
    </defs>
    <g fill="none" fill-rule="evenodd">
        <path fill="url(#a)" fill-rule="nonzero" d="M11.567 5.276c.62-.02 1.158.44 1.218 1.06.24 2.976-2.497 6.312-6.332 6.412A6.333 6.333 0 0 1 0 6.335c0-.62.52-1.119 1.119-1.119.619 0 1.118.5 1.118 1.12 0 2.576 2.078 4.234 4.136 4.194 2.557-.08 4.195-2.277 4.115-4.075-.02-.62.46-1.159 1.079-1.179Z" transform="translate(2 2)"/>
        <path fill="#00A672" fill-rule="nonzero" d="M10.77 8.415c0-.64.52-1.139 1.159-1.139h1.678c.639 0 1.158.52 1.158 1.139 0 .64-.539 1.139-1.158 1.139h-1.678c-.64 0-1.159-.5-1.159-1.139Zm-3.516 0a1.138 1.138 0 1 1 2.276-.001 1.138 1.138 0 0 1-2.276.001Z"/>
        <path fill="#00A672" d="M9.511 3.061c.02.62-.46 1.139-1.058 1.159-2.657.12-4.275 2.197-4.196 4.175.02.62-.44 1.139-1.058 1.159-.62.02-1.159-.48-1.179-1.099-.14-3.216 2.537-6.393 6.333-6.453.619-.04 1.138.44 1.158 1.06Z"/>
    </g>
</svg>
